# xmcd
#
# Track frame offsets: 
#        182
#        11955
#        25660
#        40197
#        52260
#        68390
#        83342
#        97632
#        109115
#        126682
#        137025
#        152587
#        163572
#        178925
#
# Disc length: 2573 seconds
#
# Revision: 6
# Processed by: cddbd v1.5.2PL0 Copyright (c) Steve Scherf et al.
# Submitted via: ExactAudioCopy v1.0b3
#
DISCID=ae0a0b0e
DTITLE=J.J. Cale - Travel-Log
DYEAR=1989
DGENRE=Blues
TTITLE0=Shanghaid
TTITLE1=Hold On Baby
TTITLE2=No Time
TTITLE3=Lady Luck
TTITLE4=Disadvantage
TTITLE5=Lean On Me
TTITLE6=End Of The Line
TTITLE7=New Orleans
TTITLE8=Tijuana
TTITLE9=That Kind of Thing
TTITLE10=Who's Talking
TTITLE11=Change Your Mind
TTITLE12=Humdinger
TTITLE13=River Boat Song
EXTD=
EXTT0=
EXTT1=
EXTT2=
EXTT3=
EXTT4=
EXTT5=
EXTT6=
EXTT7=
EXTT8=
EXTT9=
EXTT10=
EXTT11=
EXTT12=
EXTT13=
PLAYORDER=
